<svg xmlns="http://www.w3.org/2000/svg" width="158" height="35" viewBox="0 0 158 35"><defs><clipPath id="clip-path"><path id="長方形_2" transform="translate(883 741)" fill="#fff" d="M0 0h158v35H0z"/></clipPath><clipPath id="clip-path-2"><path id="長方形_1" transform="translate(0 .87)" fill="#fff" d="M0 0h44v44H0z"/></clipPath></defs><g id="マスクグループ_1" transform="translate(-883 -741)" clip-path="url(#clip-path)"><g id="logo" transform="translate(878 736.13)"><g id="グループ_4" clip-path="url(#clip-path-2)"><g id="グループ_3"><g id="グループ_2"><g id="グループ_1"><path id="パス_1" d="M23.742 20.85l3.364-1.943a6.512 6.512 0 00-1.3-1.265L22 19.843l-5.43-3.135a8.217 8.217 0 0112.067 1.32l1.518-.878a9.955 9.955 0 00-15.169-1.35l-.007.007c-.09.09-.18.183-.266.277l-.07.077c-.084.092-.165.185-.246.279l-.013.015c-.084.1-.165.2-.246.3l-.059.077c-.079.1-.156.209-.233.317L22 21.858l1.747-1.008z"/><path id="パス_2" d="M25.491 23.873l4.558-2.631a8.293 8.293 0 01.161 1.624 8.208 8.208 0 01-.7 3.329zm6.138-3.544a9.072 9.072 0 00-.033-.117l-.02-.073a8.788 8.788 0 00-.15-.477l-.022-.064-.059-.169a1.29 1.29 0 00-.031-.079l-.059-.154-.033-.081-.064-.154a.94.94 0 01-.031-.073c-.031-.07-.062-.141-.095-.211a.019.019 0 00-.007-.011l-1.516.876-4.893 2.825-1.747 1.008v5.9a6.48 6.48 0 001.747-.495v-3.39l4.015 2.319a8.225 8.225 0 01-5.762 3.326v1.755a9.942 9.942 0 007.28-4.2l.106-.154c.007-.009.011-.018.018-.026l.1-.156c.007-.009.011-.018.018-.026.035-.053.068-.108.1-.163 0-.007.009-.015.015-.024l.1-.167c0-.007.007-.013.011-.02l.1-.174.009-.015c.033-.059.066-.121.1-.18 0 0 0-.007.007-.011.033-.062.064-.125.095-.187a.008.008 0 010-.007c.033-.064.062-.13.092-.194a9.982 9.982 0 00.6-6.741z"/><path id="パス_3" d="M12.326 29.459l.761-.44a10.71 10.71 0 01-.873-1.511l-.761.44a11.758 11.758 0 010-10.164l-1.514-.874a13.468 13.468 0 000 11.911l-1.515.879Q8.2 29.248 8 28.779a15.234 15.234 0 010-11.827q.2-.465.425-.917l-1.516-.873a16.966 16.966 0 000 15.409l-.757.438a17.184 17.184 0 00.876 1.511l.757-.436a16.927 16.927 0 0013.345 7.7v-1.747a15.131 15.131 0 01-9.871-4.426 15.2 15.2 0 01-1.958-2.4l1.516-.876a13.441 13.441 0 0010.314 5.953v-1.752a11.617 11.617 0 01-7.4-3.4 11.89 11.89 0 01-1.4-1.683z"/><path id="パス_4" d="M38.942 22.865a16.85 16.85 0 00-1.85-7.7l-1.514.873q.228.449.425.917a15.26 15.26 0 010 11.827q-.2.465-.425.917l-1.516-.876a13.468 13.468 0 000-11.911l-1.514.873a11.758 11.758 0 010 10.164l-.761-.44a10.634 10.634 0 01-.876 1.511l.761.44a12.042 12.042 0 01-1.4 1.683 11.634 11.634 0 01-7.4 3.4v1.749a13.438 13.438 0 0010.314-5.953l1.516.876a15.162 15.162 0 01-11.829 6.829v1.749a16.936 16.936 0 0013.345-7.7l.757.436q.472-.733.876-1.511l-.759-.438a16.857 16.857 0 001.85-7.7z"/><path id="パス_5" d="M11.253 12.121a15.131 15.131 0 019.871-4.426v1.748A13.43 13.43 0 0010.81 15.4l1.514.873a12.042 12.042 0 011.4-1.683 11.634 11.634 0 017.4-3.4v.876c.288-.022.579-.035.873-.035s.585.013.873.035v-.876a11.617 11.617 0 017.4 3.4 12.042 12.042 0 011.4 1.683l1.514-.876a13.441 13.441 0 00-10.313-5.954V7.694A15.217 15.217 0 0134.7 14.523l1.514-.873a16.923 16.923 0 00-13.343-7.7v-.878c-.288-.013-.581-.022-.873-.022s-.583.009-.873.022v.873a16.936 16.936 0 00-13.345 7.7l1.514.873a15.325 15.325 0 011.958-2.4z"/><path id="パス_6" d="M21.126 23.369l-8.155-4.708a9.839 9.839 0 00-.6 1.668l6.138 3.544-5.535 3.2a9.889 9.889 0 00.873 1.511l5.535-3.194v7.088a9.9 9.9 0 001.747.31v-9.419z"/></g></g></g></g><path id="パス_7" d="M62.9 14.848H56V30.16h6.9z"/><path id="パス_8" d="M113.925 24.916c0 1.1-1.251 5.982-10.508 5.982s-10.554-4.371-10.554-5.753v-10.3h7v10.071c0 .946.9 2.48 3.484 2.48s3.282-1.33 3.282-2.541l.009-10.011h7.281v10.072z"/><path id="パス_9" d="M89.971 30.156l-7.8-7.916 7.421-7.4h-9.8l-5.311 5.369v-5.365h-6.774v15.312h6.775v-5.8l5.7 5.8z"/><path id="パス_10" d="M137.912 14.844h-20.806v2.687h6.915v12.625H131V17.531h6.911z"/><path id="パス_11" d="M154.186 30.156h8.034l-8.657-15.312h-9.605L135.3 30.156h8.581l1.319-2.336h7.663l1.321 2.337zm-7.364-5.2l2.215-3.913 2.211 3.913z"/></g></g></svg>